<svg xmlns="http://www.w3.org/2000/svg" width="39.122" height="40.851" data-name="box (3)" viewBox="0 0 39.122 40.851"><defs><linearGradient id="box-a" x1=".058" x2="1.401" y1=".91" y2="-.25" gradientUnits="objectBoundingBox"><stop offset="0" stop-color="#214099"/><stop offset="1" stop-color="#11204d"/></linearGradient></defs><g data-name="Group 10781"><path fill="url(#box-a)" d="M49.329 10.1v-.086c-.043-.086-.043-.173-.086-.259v-.039a.942.942 0 0 0-.173-.216l-.043-.043c-.043-.043-.13-.086-.173-.13l-.043-.043h-.043l-.043-.043L30.373.13a1.376 1.376 0 0 0-1.166 0L23.032 3.2l18.438 9.452.043.043c.043 0 .043.043.086.043.043.043.043.086.086.13v10.148a.453.453 0 0 1-.216.389l-3.714 1.943a.437.437 0 0 1-.6-.173.324.324 0 0 1-.043-.216v-9.8L18.454 5.527l-.043-.043-7.47 3.716-.043.043h-.043l-.043.043c-.043.043-.13.086-.173.13l-.043.043c-.086.086-.13.173-.216.259v.043a.614.614 0 0 0-.086.259v.08c0 .086-.043.13-.043.216v20.17a1.273 1.273 0 0 0 .734 1.166l18.178 9.068a1.187 1.187 0 0 0 .864.086l.086-.043c.086 0 .13-.043.216-.086l18.309-9.068a1.3 1.3 0 0 0 .734-1.166V10.32a.389.389 0 0 1-.043-.22Z" data-name="Path 6958" transform="translate(-10.25)"/></g></svg>