<svg id="Group_14855" data-name="Group 14855" xmlns="http://www.w3.org/2000/svg" xmlns:xlink="http://www.w3.org/1999/xlink" width="178.586" height="45.782" viewBox="0 0 178.586 45.782">
  <defs>
    <linearGradient id="linear-gradient" x1="0.069" y1="0.5" x2="0.947" y2="0.454" gradientUnits="objectBoundingBox">
      <stop offset="0" stop-color="#214099"/>
      <stop offset="0.243" stop-color="#213c92"/>
      <stop offset="0.576" stop-color="#223281"/>
      <stop offset="0.781" stop-color="#232264"/>
      <stop offset="1" stop-color="#242061"/>
    </linearGradient>
    <linearGradient id="linear-gradient-2" x1="0.168" y1="0.5" x2="0.944" y2="0.5" gradientUnits="objectBoundingBox">
      <stop offset="0" stop-color="#214099"/>
      <stop offset="0.243" stop-color="#213c92"/>
      <stop offset="0.576" stop-color="#223281"/>
      <stop offset="0.793" stop-color="#232264"/>
      <stop offset="1" stop-color="#242061"/>
    </linearGradient>
    <linearGradient id="linear-gradient-3" x1="0.114" y1="0.575" x2="0.839" y2="0.461" gradientUnits="objectBoundingBox">
      <stop offset="0" stop-color="#414042"/>
      <stop offset="0.294" stop-color="#58595b"/>
      <stop offset="0.523" stop-color="#77787b"/>
      <stop offset="0.765" stop-color="#58595b"/>
      <stop offset="1" stop-color="#414042"/>
    </linearGradient>
    <clipPath id="clip-path">
      <path id="Path_28573" data-name="Path 28573" d="M228.05,26.753l1.252-7.907h23.872l-1.252,7.907Z" transform="translate(-228.05 -18.846)" fill="url(#linear-gradient)"/>
    </clipPath>
    <clipPath id="clip-path-2">
      <path id="Path_28575" data-name="Path 28575" d="M372.807,0l-1.265,7.984h-7.984l-1.252,7.9h7.984l-1.265,7.984h7.9l1.264-7.984h7.984l1.252-7.9h-7.984L380.711,0Z" transform="translate(-362.306)" fill="url(#linear-gradient-2)"/>
    </clipPath>
    <clipPath id="clip-path-3">
      <path id="Path_28577" data-name="Path 28577" d="M103.951,29.91,99.923,55.342h7.908l4.028-25.431ZM25.965,18.051,15.385,40.241a74.527,74.527,0,0,0-3.215,8.213q.01-1.023-.2-3.634t-.486-4.579L7.98,18.051H0L6.742,55.342h8.623l18.58-37.291Zm48.849,0L68.907,55.342H91.941l1.035-6.531H77.85l4.872-30.76Zm50.85,0-5.907,37.291h7.908l5.906-37.291Zm11.852,0L131.61,55.342h7.853l4.179-26.388,11,26.388H164.69l2.763-17.447h-7.9l-1.011,6.383L147.487,18.051ZM41.127,46.057q-1.869-3.164-.881-9.412t3.89-9.424a9.825,9.825,0,0,1,7.619-3.177q9.41,0,7.416,12.6Q57.18,49.219,47.717,49.221q-4.721,0-6.59-3.164M38.821,22.375q-5.384,4.911-6.856,14.219t2.33,14.283q3.8,4.975,12.372,4.973t13.948-4.973Q66,45.9,67.461,36.645q1.47-9.283-2.3-14.232T52.8,17.466q-8.6,0-13.976,4.909" transform="translate(0 -17.466)" fill="url(#linear-gradient-3)"/>
    </clipPath>
  </defs>
  <g id="Group_14850" data-name="Group 14850" transform="translate(96.595 7.983)">
    <g id="Group_14849" data-name="Group 14849" clip-path="url(#clip-path)">
      <path id="Path_28572" data-name="Path 28572" d="M220.511,4.794,242.433-9.023l9.589,17.7L230.1,22.493Z" transform="translate(-223.704 -2.781)" fill="url(#linear-gradient)"/>
    </g>
  </g>
  <g id="Group_14852" data-name="Group 14852" transform="translate(153.462)">
    <g id="Group_14851" data-name="Group 14851" clip-path="url(#clip-path-2)">
      <path id="Path_28574" data-name="Path 28574" d="M334.833-7.05l26.188-22.608L383.231-3.269,357.042,19.339Z" transform="translate(-346.47 17.095)" fill="url(#linear-gradient-2)"/>
    </g>
  </g>
  <g id="Group_14854" data-name="Group 14854" transform="translate(0 7.398)">
    <g id="Group_14853" data-name="Group 14853" clip-path="url(#clip-path-3)">
      <path id="Path_28576" data-name="Path 28576" d="M-44.173-80.324,71.525-180.2,160.7-74.245,45,25.634Z" transform="translate(25.463 96.477)" fill="url(#linear-gradient-3)"/>
    </g>
  </g>
</svg>
