<svg xmlns="http://www.w3.org/2000/svg" width="67.708" height="72.672" viewBox="0 0 67.708 72.672">
  <defs>
    <linearGradient id="a" x1="1.74" x2="-5.893" y1="-2.71" y2="2.864" gradientUnits="objectBoundingBox">
      <stop offset="0" stop-color="#214099" />
      <stop offset=".706" stop-color="#14265b" />
      <stop offset="1" stop-color="#11204d" />
    </linearGradient>
    <clipPath id="b">
      <path fill="url(#a)" d="M0 0h67.708v72.672H0z" data-name="Rectangle 704" />
    </clipPath>
  </defs>
  <g data-name="Group 14917">
    <g fill="url(#a)" clip-path="url(#b)" data-name="Group 14886">
      <path d="M13.215 64.843c1.141.239 2.334.438 3.571.6v-5.024q-1.851-.224-3.571-.565Z" data-name="Path 28630" />
      <path d="M0 55.815c0 3.592 4.423 6.742 11.071 8.52v-4.962C6.117 58.127 2.239 56.131 0 53.661Z"
        data-name="Path 28631" />
      <path
        d="M24.643 60.802v5.051a53.495 53.495 0 0 0 3.572-.184v-1.9a23.172 23.172 0 0 1-1.25-3.054q-1.143.067-2.322.087"
        data-name="Path 28632" />
      <path d="M18.928 65.669c1.163.1 2.356.161 3.572.184v-5.05q-1.828-.032-3.572-.173Z" data-name="Path 28633" />
      <path
        d="M25.829 55.104a59.77 59.77 0 0 1-2.257.046c-10.786 0-19.615-2.841-23.53-7.108a4.3 4.3 0 0 0-.042.579c0 5.55 10.554 10.051 23.572 10.051.949 0 1.882-.027 2.8-.074a24.582 24.582 0 0 1-.545-3.494"
        data-name="Path 28634" />
      <path d="M16.786 52.582V47.56q-1.851-.223-3.571-.563v4.989c1.141.239 2.334.438 3.571.6" data-name="Path 28635" />
      <path d="M11.071 51.477v-4.958C6.117 45.27 2.239 43.274 0 40.804v2.153c0 3.593 4.423 6.744 11.071 8.52"
        data-name="Path 28636" />
      <path d="M22.501 52.997v-5.052q-1.829-.032-3.572-.173v5.039c1.162.1 2.355.162 3.572.184" data-name="Path 28637" />
      <path d="M25.74 52.963a25.11 25.11 0 0 1 .529-5.067c-.535.025-1.078.039-1.626.049v5.051q.553-.011 1.1-.032"
        data-name="Path 28638" />
      <path
        d="M23.572 45.814c1.107 0 2.193-.035 3.259-.1a23.432 23.432 0 0 1 1.081-2.838v-.193H28c.094-.2.193-.391.29-.584a58.055 58.055 0 0 1-4.714.191c-10.786 0-19.615-2.84-23.53-7.108a4.305 4.305 0 0 0-.046.582c0 5.551 10.554 10.05 23.572 10.05"
        data-name="Path 28639" />
      <path
        d="M46.898 31.547a4.516 4.516 0 0 0 .245-1.447v-2.153a16.4 16.4 0 0 1-5.018 3.564 15.642 15.642 0 0 1 4.773.035"
        data-name="Path 28640" />
      <path d="M11.071 38.62v-4.958C6.117 32.413 2.239 30.416 0 27.947V30.1c0 3.592 4.423 6.744 11.071 8.52"
        data-name="Path 28641" />
      <path d="M33.93 34.14q-1.718.339-3.572.563v4.06a20.076 20.076 0 0 1 3.572-3.675Z" data-name="Path 28642" />
      <path d="M28.214 39.955v-5.044q-1.742.138-3.572.173v5.051a55.583 55.583 0 0 0 3.572-.184"
        data-name="Path 28643" />
      <path d="M22.501 40.139v-5.051q-1.829-.032-3.572-.173v5.039c1.162.1 2.355.16 3.572.184" data-name="Path 28644" />
      <path d="M16.786 39.725v-5.022q-1.851-.223-3.571-.563v4.989c1.141.238 2.334.439 3.571.6" data-name="Path 28645" />
      <path
        d="M23.572 32.958c13.019 0 23.572-4.5 23.572-10.05a4.426 4.426 0 0 0-.041-.58c-3.916 4.269-12.744 7.109-23.531 7.109S3.956 26.596.041 22.327a4.322 4.322 0 0 0-.041.58c0 5.551 10.554 10.051 23.572 10.051"
        data-name="Path 28646" />
      <path d="M34.657 63.331h-4.44c2.724 5.205 7.448 8.793 12.907 9.28a20.307 20.307 0 0 1-8.467-9.28"
        data-name="Path 28647" />
      <path d="M33.05 58.669h-4.607a21.946 21.946 0 0 0 .86 2.664h4.532a24.1 24.1 0 0 1-.784-2.665"
        data-name="Path 28648" />
      <path d="M28.031 49.345a22.971 22.971 0 0 0-.272 2.664h4.662a25.022 25.022 0 0 1 .25-2.664Z"
        data-name="Path 28649" />
      <path d="M27.759 54.007a23.086 23.086 0 0 0 .272 2.663h4.641a25.16 25.16 0 0 1-.251-2.663Z"
        data-name="Path 28650" />
      <path d="M33.834 44.685h-4.531a21.547 21.547 0 0 0-.86 2.664h4.607a23.823 23.823 0 0 1 .784-2.663"
        data-name="Path 28651" />
      <path d="M43.123 33.406c-5.458.487-10.183 4.076-12.908 9.28h4.44a20.3 20.3 0 0 1 8.468-9.28"
        data-name="Path 28652" />
      <path
        d="M51.053 33.343c-9.2 0-16.655 8.8-16.655 19.664s7.457 19.664 16.655 19.664 16.655-8.8 16.655-19.664-7.456-19.664-16.655-19.664"
        data-name="Path 28653" />
      <path d="M36.073 25.762c6.648-1.778 11.071-4.928 11.071-8.52v-2.154c-2.24 2.47-6.117 4.467-11.071 5.715Z"
        data-name="Path 28654" />
      <path d="M11.071 25.762v-4.959C6.117 19.555 2.239 17.558 0 15.088v2.154c0 3.592 4.423 6.742 11.071 8.52"
        data-name="Path 28655" />
      <path d="M33.93 26.271v-4.989q-1.718.34-3.572.564v5.021a44.443 44.443 0 0 0 3.572-.6" data-name="Path 28656" />
      <path d="M28.214 27.096v-5.039q-1.742.138-3.572.174v5.049a54.174 54.174 0 0 0 3.572-.184"
        data-name="Path 28657" />
      <path d="M22.501 27.28v-5.049q-1.829-.033-3.572-.174v5.039c1.162.1 2.355.161 3.572.184" data-name="Path 28658" />
      <path d="M16.786 26.868v-5.022q-1.851-.225-3.571-.563v4.988c1.141.239 2.334.439 3.571.6" data-name="Path 28659" />
      <path d="M23.572 20.1c13.019 0 23.572-4.5 23.572-10.05S36.59 0 23.572 0 0 4.5 0 10.049 10.554 20.1 23.572 20.1"
        data-name="Path 28660" />
    </g>
  </g>
</svg>